<?xml version="1.0" standalone="no"?>
<!DOCTYPE svg PUBLIC "-//W3C//DTD SVG 20010904//EN"
 "http://www.w3.org/TR/2001/REC-SVG-20010904/DTD/svg10.dtd">
<svg version="1.0" xmlns="http://www.w3.org/2000/svg"
 width="860.000000pt" height="731.000000pt" viewBox="0 0 860.000000 731.000000"
 preserveAspectRatio="xMidYMid meet">

<g transform="translate(0.000000,731.000000) scale(0.100000,-0.100000)"
fill="#000000" stroke="none">
<path d="M4125 6899 c-894 -55 -1716 -236 -2369 -523 -261 -115 -541 -286
-801 -488 -149 -116 -380 -344 -467 -461 -126 -171 -196 -352 -185 -486 8
-107 40 -176 118 -254 105 -105 266 -173 489 -207 97 -14 365 -14 471 0 87 12
102 17 78 24 -184 55 -258 95 -351 195 -110 116 -158 242 -158 417 0 408 301
781 857 1062 1141 575 3086 682 4127 226 158 -69 154 -54 50 -175 -256 -299
-534 -720 -791 -1204 -106 -197 -158 -301 -501 -995 -303 -615 -429 -854 -595
-1135 -111 -188 -253 -405 -265 -405 -11 0 -332 310 -332 320 0 5 23 46 51 91
80 129 257 431 489 834 686 1192 1012 1661 1497 2155 89 90 160 166 158 168
-5 5 -203 -96 -294 -150 -278 -167 -553 -430 -801 -763 -186 -249 -322 -473
-672 -1110 -249 -451 -362 -643 -499 -845 -117 -171 -123 -180 -136 -180 -14
0 -174 167 -249 260 -69 85 -159 220 -198 298 -131 259 -127 537 10 729 18 26
32 48 30 50 -6 7 -342 -189 -407 -238 -127 -94 -186 -176 -219 -304 -58 -226
6 -470 200 -765 100 -151 264 -362 383 -491 106 -116 109 -121 98 -147 -20
-42 -403 -705 -417 -721 -17 -18 -51 -4 -148 59 -357 233 -521 760 -391 1249
13 47 22 87 20 89 -7 8 -110 -85 -149 -135 -174 -221 -181 -532 -21 -888 40
-89 125 -230 190 -315 68 -90 221 -248 288 -296 26 -20 47 -40 47 -45 0 -12
-226 -384 -272 -446 -50 -69 -113 -128 -157 -150 -20 -9 -66 -19 -102 -21
-121 -7 -213 54 -260 174 -19 50 -23 78 -23 184 0 78 7 158 18 214 9 48 14 91
11 95 -10 9 -70 -66 -105 -131 -49 -91 -72 -195 -72 -328 -1 -184 45 -324 136
-418 65 -69 107 -87 201 -87 71 0 88 4 149 34 102 50 204 158 330 350 56 86
153 233 214 327 l112 171 153 10 c336 24 537 110 912 388 l115 86 118 -74
c508 -321 998 -483 1566 -517 462 -29 903 61 1316 266 628 313 1109 840 1373
1504 139 350 201 679 201 1075 0 538 -123 975 -384 1367 -256 384 -751 805
-1199 1019 l-170 82 59 86 c33 47 80 114 105 148 43 58 44 63 26 72 -25 14
-81 -23 -231 -154 l-112 -98 -192 62 c-269 86 -542 145 -811 175 -350 39 -931
55 -1260 35z m2328 -688 c403 -194 758 -532 996 -945 182 -316 301 -700 342
-1101 15 -152 15 -484 -1 -640 -58 -592 -321 -1164 -707 -1535 -274 -264 -557
-388 -982 -430 -256 -25 -553 3 -861 80 -417 106 -830 314 -1079 545 l-54 51
16 29 c8 17 88 136 177 265 230 334 365 554 536 875 188 351 461 909 592 1210
239 548 470 1001 703 1375 76 124 186 280 195 280 3 0 60 -26 127 -59z m-3190
-4043 c62 -49 142 -109 180 -134 37 -24 67 -50 67 -56 0 -21 -172 -181 -232
-216 -145 -85 -352 -151 -488 -155 -41 -1 -76 2 -78 6 -6 13 420 657 430 651
5 -3 59 -46 121 -96z"/>
</g>
</svg>
